<svg xmlns="http://www.w3.org/2000/svg" class="electrical-diagram electroia-core-diagram" viewBox="0 0 3144 996" role="img"
      data-engine-version="1.15.0-alpha.1" data-contract-version="1.0"
      data-document-kind="multi_line_diagram" data-standard-profile="IEC_EXPERIMENTAL"
      data-grid-pitch-mil="50" data-pages="1" aria-label="PLC, seguridad y variador para motor trifásico">
      <style>
        .sheet{fill:#fff;stroke:#222a27;stroke-width:2}.wire{fill:none;stroke:#26302c;stroke-width:2.4;stroke-linecap:round;stroke-linejoin:round}.electroia-core-diagram[data-document-kind="single_line_diagram"] .wire{stroke-width:3.2}.net-protective_earth{stroke-width:3}.junction{fill:#26302c}.bridge-gap{fill:none;stroke:#fff;stroke-width:8}.relationship{fill:none;stroke:#7d8782;stroke-width:2;stroke-dasharray:8 6}.symbol-line{fill:none;stroke:#202824;stroke-width:2.6;stroke-linecap:round;stroke-linejoin:round}.symbol-bus{fill:none;stroke:#202824;stroke-width:6;stroke-linecap:round}.symbol-fill{fill:#fff;stroke:#202824;stroke-width:2.6}.symbol-accent{fill:none;stroke:#202824;stroke-width:2}.symbol-linkage{fill:none;stroke:#68736d;stroke-width:1.8;stroke-dasharray:5 4}.component-ref{font:700 15px Inter,Arial,sans-serif;fill:#202824;text-anchor:middle}.component-value{font:500 12px Inter,Arial,sans-serif;fill:#58625d;text-anchor:middle}.net-label{font:700 11px ui-monospace,SFMono-Regular,Consolas,monospace;fill:#47504c;paint-order:stroke;stroke:#fff;stroke-width:5;stroke-linejoin:round}.polarity{font:800 14px Inter,Arial,sans-serif;fill:#202824;text-anchor:middle}.title-main{font:800 13px Inter,Arial,sans-serif;fill:#202824}.title-small{font:600 10px Inter,Arial,sans-serif;fill:#59635e}.title-rule{stroke:#202824;stroke-width:1.4}.standard-note{font:700 10px Inter,Arial,sans-serif;fill:#606a65;letter-spacing:.8px}.document-note{font:800 10px Inter,Arial,sans-serif;fill:#8a3d25}.family-code{font:800 15px Inter,Arial,sans-serif;fill:#202824;text-anchor:middle}.draft-badge{display:none;font:800 9px Inter,Arial,sans-serif;fill:#a64b2a;text-anchor:end}.review-auto_draft .symbol-fill{stroke:#a64b2a;stroke-dasharray:6 4}.review-auto_draft .draft-badge{display:block}
      </style>
      <rect class="sheet" x="8" y="8" width="3128" height="980"/>
      <defs><pattern id="electro-grid" width="24" height="24" patternUnits="userSpaceOnUse"><circle cx="1.2" cy="1.2" r="1.2" fill="#d7dcd8"/></pattern></defs><rect x="12" y="12" width="3120" height="900" fill="url(#electro-grid)"/>
      <text class="standard-note" x="24" y="30">IEC EXPERIMENTAL · REJILLA 50 mil · LIENZO ÚNICO</text>
      <g class="relationships"></g>
      <g class="wires"><path class="wire net-power" data-net="L1" d="M96 72L3048 72"/><path class="wire net-power" data-net="L1" d="M3048 216L3048 72"/><path class="wire net-power" data-net="L1" d="M1152 216L1152 72"/><path class="wire net-power" data-net="L1" d="M96 240L96 72"/><path class="wire net-power" data-net="L2" d="M3048 264L3048 72"/><path class="wire net-power" data-net="L2" d="M3048 72L1152 72"/><path class="wire net-power" data-net="L2" d="M1152 72L1152 264"/><path class="wire net-power" data-net="L3" d="M3048 312L3048 864"/><path class="wire net-power" data-net="L3" d="M3048 864L1152 864"/><path class="wire net-power" data-net="L3" d="M1152 864L1152 312"/><path class="wire net-power" data-net="N" d="M3048 360L3048 816"/><path class="wire net-power" data-net="N" d="M3048 816L96 816"/><path class="wire net-power" data-net="N" d="M96 816L96 288"/><path class="wire net-protective_earth" data-net="PE" d="M192 792L2952 792"/><path class="wire net-protective_earth" data-net="PE" d="M2952 408L2952 792"/><path class="wire net-protective_earth" data-net="PE" d="M1248 504L1248 792"/><path class="wire net-protective_earth" data-net="PE" d="M2424 312L2424 792"/><path class="wire net-protective_earth" data-net="PE" d="M192 360L192 792"/><path class="wire net-protective_earth" data-net="PE" d="M2640 168L2640 792"/><path class="wire net-power" data-net="24V" d="M288 48L1872 48"/><path class="wire net-power" data-net="24V" d="M288 216L288 48"/><path class="wire net-power" data-net="24V" d="M1512 600L1512 48"/><path class="wire net-power" data-net="24V" d="M1512 240L1512 48"/><path class="wire net-power" data-net="24V" d="M792 216L792 48"/><path class="wire net-power" data-net="24V" d="M1872 240L1872 48"/><path class="wire net-ground" data-net="M" d="M288 792L1872 792"/><path class="wire net-ground" data-net="M" d="M288 264L288 792"/><path class="wire net-ground" data-net="M" d="M1512 648L1512 792"/><path class="wire net-ground" data-net="M" d="M1512 288L1512 792"/><path class="wire net-ground" data-net="M" d="M792 264L792 792"/><path class="wire net-ground" data-net="M" d="M1872 288L1872 792"/><path class="wire net-signal" data-net="ESTOP_FEED" d="M288 312L384 312"/><path class="wire net-signal" data-net="ESTOP_FEED" d="M384 312L384 240"/><path class="wire net-signal" data-net="ESTOP_FEED" d="M384 240L480 240"/><path class="wire net-signal" data-net="ESTOP_CH1" d="M624 240L720 240"/><path class="wire net-signal" data-net="ESTOP_CH1" d="M720 240L720 312"/><path class="wire net-signal" data-net="ESTOP_CH1" d="M720 312L792 312"/><path class="wire net-signal" data-net="SAFE_TORQUE_OFF" d="M984 264L1080 264"/><path class="wire net-signal" data-net="SAFE_TORQUE_OFF" d="M1080 264L1080 408"/><path class="wire net-signal" data-net="SAFE_TORQUE_OFF" d="M1080 408L1152 408"/><path class="wire net-signal" data-net="RUN_COMMAND" d="M1704 216L1440 216"/><path class="wire net-signal" data-net="RUN_COMMAND" d="M1440 216L1440 360"/><path class="wire net-signal" data-net="RUN_COMMAND" d="M1440 360L1152 360"/><path class="wire net-bus" data-net="PLC_IO_BUS" d="M1512 696L1512 336"/><path class="wire net-bus" data-net="VFD_FIELD_BUS" d="M1704 648L1440 648"/><path class="wire net-bus" data-net="VFD_FIELD_BUS" d="M1440 648L1440 456"/><path class="wire net-bus" data-net="VFD_FIELD_BUS" d="M1440 456L1152 456"/><path class="wire net-bus" data-net="HMI_ETH" d="M1704 600L1704 840"/><path class="wire net-bus" data-net="HMI_ETH" d="M1704 840L2064 840"/><path class="wire net-bus" data-net="HMI_ETH" d="M2064 840L2064 216"/><path class="wire net-power" data-net="MOTOR_U" d="M1344 240L1344 48"/><path class="wire net-power" data-net="MOTOR_U" d="M1344 48L2280 48"/><path class="wire net-power" data-net="MOTOR_U" d="M2280 48L2280 168"/><path class="wire net-power" data-net="MOTOR_V" d="M1344 288L1344 96"/><path class="wire net-power" data-net="MOTOR_V" d="M1344 96L2328 96"/><path class="wire net-power" data-net="MOTOR_V" d="M2328 96L2328 168"/><path class="wire net-power" data-net="MOTOR_W" d="M1344 336L1344 72"/><path class="wire net-power" data-net="MOTOR_W" d="M1344 72L2376 72"/><path class="wire net-power" data-net="MOTOR_W" d="M2376 72L2376 168"/><path class="bridge-gap" d="M279 72q9 -13 18 0"/><path class="wire bridge" data-net="L1" d="M279 72q9 -13 18 0"/><path class="bridge-gap" d="M1503 72q9 -13 18 0"/><path class="wire bridge" data-net="L1" d="M1503 72q9 -13 18 0"/><path class="bridge-gap" d="M783 72q9 -13 18 0"/><path class="wire bridge" data-net="L1" d="M783 72q9 -13 18 0"/><path class="bridge-gap" d="M1863 72q9 -13 18 0"/><path class="wire bridge" data-net="L1" d="M1863 72q9 -13 18 0"/><path class="bridge-gap" d="M1335 72q9 -13 18 0"/><path class="wire bridge" data-net="L1" d="M1335 72q9 -13 18 0"/><path class="bridge-gap" d="M2271 72q9 -13 18 0"/><path class="wire bridge" data-net="L1" d="M2271 72q9 -13 18 0"/><path class="bridge-gap" d="M1503 72q9 -13 18 0"/><path class="wire bridge" data-net="L2" d="M1503 72q9 -13 18 0"/><path class="bridge-gap" d="M1863 72q9 -13 18 0"/><path class="wire bridge" data-net="L2" d="M1863 72q9 -13 18 0"/><path class="bridge-gap" d="M1335 72q9 -13 18 0"/><path class="wire bridge" data-net="L2" d="M1335 72q9 -13 18 0"/><path class="bridge-gap" d="M2271 72q9 -13 18 0"/><path class="wire bridge" data-net="L2" d="M2271 72q9 -13 18 0"/><path class="bridge-gap" d="M1143 816q9 -13 18 0"/><path class="wire bridge" data-net="N" d="M1143 816q9 -13 18 0"/><path class="bridge-gap" d="M1143 792q9 -13 18 0"/><path class="wire bridge" data-net="PE" d="M1143 792q9 -13 18 0"/><path class="bridge-gap" d="M1143 792q9 -13 18 0"/><path class="wire bridge" data-net="M" d="M1143 792q9 -13 18 0"/><path class="bridge-gap" d="M1695 816q9 -13 18 0"/><path class="wire bridge" data-net="N" d="M1695 816q9 -13 18 0"/><path class="bridge-gap" d="M2055 816q9 -13 18 0"/><path class="wire bridge" data-net="N" d="M2055 816q9 -13 18 0"/><path class="bridge-gap" d="M1695 792q9 -13 18 0"/><path class="wire bridge" data-net="PE" d="M1695 792q9 -13 18 0"/><path class="bridge-gap" d="M2055 792q9 -13 18 0"/><path class="wire bridge" data-net="PE" d="M2055 792q9 -13 18 0"/><path class="bridge-gap" d="M1503 216q9 -13 18 0"/><path class="wire bridge" data-net="RUN_COMMAND" d="M1503 216q9 -13 18 0"/><path class="bridge-gap" d="M1503 96q9 -13 18 0"/><path class="wire bridge" data-net="MOTOR_V" d="M1503 96q9 -13 18 0"/><path class="bridge-gap" d="M1503 72q9 -13 18 0"/><path class="wire bridge" data-net="MOTOR_W" d="M1503 72q9 -13 18 0"/><path class="bridge-gap" d="M1863 96q9 -13 18 0"/><path class="wire bridge" data-net="MOTOR_V" d="M1863 96q9 -13 18 0"/><path class="bridge-gap" d="M1863 72q9 -13 18 0"/><path class="wire bridge" data-net="MOTOR_W" d="M1863 72q9 -13 18 0"/><path class="bridge-gap" d="M1695 792q9 -13 18 0"/><path class="wire bridge" data-net="M" d="M1695 792q9 -13 18 0"/><path class="bridge-gap" d="M1503 648q9 -13 18 0"/><path class="wire bridge" data-net="VFD_FIELD_BUS" d="M1503 648q9 -13 18 0"/><path class="bridge-gap" d="M2271 96q9 -13 18 0"/><path class="wire bridge" data-net="MOTOR_V" d="M2271 96q9 -13 18 0"/><path class="bridge-gap" d="M2271 72q9 -13 18 0"/><path class="wire bridge" data-net="MOTOR_W" d="M2271 72q9 -13 18 0"/><text class="net-label" data-net-label="L1" x="103" y="65">L1</text><text class="net-label" data-net-label="L2" x="2119" y="257">L2</text><text class="net-label" data-net-label="L3" x="2119" y="305">L3</text><text class="net-label" data-net-label="N" x="1591" y="329">N</text><text class="net-label" data-net-label="PE" x="199" y="785">PE</text><text class="net-label" data-net-label="24V" x="295" y="41">24V</text><text class="net-label" data-net-label="M" x="295" y="785">M</text><text class="net-label" data-net-label="ESTOP_FEED" x="391" y="281">ESTOP_FEED</text><text class="net-label" data-net-label="ESTOP_CH1" x="727" y="281">ESTOP_CH1</text><text class="net-label" data-net-label="SAFE_TORQUE_OFF" x="1087" y="329">SAFE_TORQUE_OFF</text><text class="net-label" data-net-label="RUN_COMMAND" x="1447" y="281">RUN_COMMAND</text><text class="net-label" data-net-label="PLC_IO_BUS" x="1519" y="521">PLC_IO_BUS</text><text class="net-label" data-net-label="VFD_FIELD_BUS" x="1447" y="545">VFD_FIELD_BUS</text><text class="net-label" data-net-label="HMI_ETH" x="1903" y="401">HMI_ETH</text><text class="net-label" data-net-label="MOTOR_U" x="1831" y="209">MOTOR_U</text><text class="net-label" data-net-label="MOTOR_V" x="1855" y="233">MOTOR_V</text><text class="net-label" data-net-label="MOTOR_W" x="1879" y="257">MOTOR_W</text></g>
      <g class="symbols"><g class="component review-engine_reviewed" data-ref="SUP1" data-symbol-id="SYM-0501" data-review-status="engine_reviewed">
      <g transform="translate(2952 288) rotate(0) scale(1 1)"><path class="symbol-line" d="M66 -72L96 -72"/><path class="symbol-line" d="M66 -24L96 -24"/><path class="symbol-line" d="M66 24L96 24"/><path class="symbol-line" d="M66 72L96 72"/><path class="symbol-line" d="M0 94.80000000000001L0 120"/><rect class="symbol-fill" x="-66" y="-94.80000000000001" width="132" height="189.60000000000002" rx="7"/><text class="component-value" x="0" y="5">3N~ SUPPLY</text></g>
      <text class="component-value" x="2952" y="444.2">Red 400/230 V · ejemplo</text><text class="component-ref" x="2952" y="427.2">SUP1</text>
    </g><g class="component review-engine_reviewed" data-ref="PS1" data-symbol-id="SYM-0469" data-review-status="engine_reviewed">
      <g transform="translate(192 264) rotate(0) scale(1 1)"><path class="symbol-line" d="M-96 -24L-66 -24"/><path class="symbol-line" d="M-96 24L-66 24"/><path class="symbol-line" d="M66 -48L96 -48"/><path class="symbol-line" d="M66 0L96 0"/><path class="symbol-line" d="M66 48L96 48"/><path class="symbol-line" d="M0 70.80000000000001L0 96"/><rect class="symbol-fill" x="-66" y="-70.80000000000001" width="132" height="141.60000000000002" rx="7"/><text class="component-value" x="0" y="5">24 V DC</text></g>
      <text class="component-value" x="192" y="396.2">Fuente 24 V DC</text><text class="component-ref" x="192" y="379.2">PS1</text>
    </g><g class="component review-engine_reviewed" data-ref="PLC1" data-symbol-id="SYM-0461" data-review-status="engine_reviewed">
      <g transform="translate(1608 648) rotate(0) scale(1 1)"><path class="symbol-line" d="M-96 -48L-66 -48"/><path class="symbol-line" d="M-96 0L-66 0"/><path class="symbol-line" d="M-96 48L-66 48"/><path class="symbol-line" d="M66 -48L96 -48"/><path class="symbol-line" d="M66 0L96 0"/><path class="symbol-line" d="M66 48L96 48"/><rect class="symbol-fill" x="-66" y="-70.80000000000001" width="132" height="141.60000000000002" rx="7"/><text class="component-value" x="0" y="5">PLC CPU</text></g>
      <text class="component-value" x="1608" y="780.2">PLC industrial</text><text class="component-ref" x="1608" y="763.2">PLC1</text>
    </g><g class="component review-engine_reviewed" data-ref="DO1" data-symbol-id="SYM-0464" data-review-status="engine_reviewed">
      <g transform="translate(1608 288) rotate(0) scale(1 1)"><path class="symbol-line" d="M-96 -48L-66 -48"/><path class="symbol-line" d="M-96 0L-66 0"/><path class="symbol-line" d="M-96 48L-66 48"/><path class="symbol-line" d="M66 -72L96 -72"/><path class="symbol-line" d="M66 -24L96 -24"/><path class="symbol-line" d="M66 24L96 24"/><path class="symbol-line" d="M66 72L96 72"/><rect class="symbol-fill" x="-66" y="-94.80000000000001" width="132" height="189.60000000000002" rx="7"/><path class="symbol-accent" d="M-62.400000000000006 -55.199999999999996h26.400000000000002m-26.400000000000002 36h26.400000000000002m-26.400000000000002 36h26.400000000000002m-26.400000000000002 36h26.400000000000002"/><text class="component-value" x="0" y="5">DO</text></g>
      <text class="component-value" x="1608" y="444.2">4 salidas digitales</text><text class="component-ref" x="1608" y="427.2">DO1</text>
    </g><g class="component review-engine_reviewed" data-ref="SR1" data-symbol-id="SYM-0489" data-review-status="engine_reviewed">
      <g transform="translate(888 312) rotate(0) scale(1 1)"><path class="symbol-line" d="M-96 -96L-66 -96"/><path class="symbol-line" d="M-96 -48L-66 -48"/><path class="symbol-line" d="M-96 0L-66 0"/><path class="symbol-line" d="M-96 48L-66 48"/><path class="symbol-line" d="M-96 96L-66 96"/><path class="symbol-line" d="M66 -48L96 -48"/><path class="symbol-line" d="M66 0L96 0"/><path class="symbol-line" d="M66 48L96 48"/><rect class="symbol-fill" x="-66" y="-118.80000000000001" width="132" height="237.60000000000002" rx="7"/><text class="component-value" x="0" y="5">SAFETY RELAY</text></g>
      <text class="component-value" x="888" y="492.2">Relé de seguridad</text><text class="component-ref" x="888" y="475.2">SR1</text>
    </g><g class="component review-engine_reviewed" data-ref="S0" data-symbol-id="SYM-0381" data-review-status="engine_reviewed">
      <g transform="translate(552 240) rotate(0) scale(1 1)"><path class="symbol-line" d="M-72 0L-27.599999999999998 0"/><path class="symbol-line" d="M27.599999999999998 0L72 0"/><circle cx="-27.599999999999998" cy="0" r="4" fill="#202824"/><circle cx="27.599999999999998" cy="0" r="4" fill="#202824"/><path class="symbol-line" d="M-25.200000000000003 -1.92L25.200000000000003 -1.92"/><path class="symbol-accent" d="M0 -55.199999999999996L0 -19.200000000000003"/><path class="symbol-accent" d="M-22.799999999999997 -55.199999999999996Q0 -72 22.799999999999997 -55.199999999999996Z"/></g>
      <text class="component-value" x="552" y="336.2">Parada de emergencia</text><text class="component-ref" x="552" y="319.2">S0</text>
    </g><g class="component review-engine_reviewed" data-ref="HMI1" data-symbol-id="SYM-0468" data-review-status="engine_reviewed">
      <g transform="translate(1968 264) rotate(0) scale(1 1)"><path class="symbol-line" d="M-96 -24L-66 -24"/><path class="symbol-line" d="M-96 24L-66 24"/><path class="symbol-line" d="M66 -48L96 -48"/><path class="symbol-line" d="M66 0L96 0"/><path class="symbol-line" d="M66 48L96 48"/><rect class="symbol-fill" x="-66" y="-70.80000000000001" width="132" height="141.60000000000002" rx="7"/><text class="component-value" x="0" y="5">HMI</text></g>
      <text class="component-value" x="1968" y="396.2">Panel operador</text><text class="component-ref" x="1968" y="379.2">HMI1</text>
    </g><g class="component review-engine_reviewed" data-ref="VFD1" data-symbol-id="SYM-0481" data-review-status="engine_reviewed">
      <g transform="translate(1248 336) rotate(0) scale(1 1)"><path class="symbol-line" d="M-96 -120L-66 -120"/><path class="symbol-line" d="M-96 -72L-66 -72"/><path class="symbol-line" d="M-96 -24L-66 -24"/><path class="symbol-line" d="M-96 24L-66 24"/><path class="symbol-line" d="M-96 72L-66 72"/><path class="symbol-line" d="M-96 120L-66 120"/><path class="symbol-line" d="M66 -96L96 -96"/><path class="symbol-line" d="M66 -48L96 -48"/><path class="symbol-line" d="M66 0L96 0"/><path class="symbol-line" d="M66 48L96 48"/><path class="symbol-line" d="M66 96L96 96"/><path class="symbol-line" d="M0 142.8L0 168"/><rect class="symbol-fill" x="-66" y="-142.8" width="132" height="285.6" rx="7"/><text class="component-value" x="0" y="5">VFD</text></g>
      <text class="component-value" x="1248" y="540.2">Variador motor</text><text class="component-ref" x="1248" y="523.2">VFD1</text>
    </g><g class="component review-engine_reviewed" data-ref="M1" data-symbol-id="SYM-0151" data-review-status="engine_reviewed">
      <g transform="translate(2328 264) rotate(0) scale(1 1)"><path class="symbol-line" d="M-48 -96L-48 -55.199999999999996"/><path class="symbol-line" d="M0 -96L0 -58.800000000000004"/><path class="symbol-line" d="M48 -96L48 -55.199999999999996"/><circle class="symbol-fill" cx="0" cy="0" r="58.800000000000004"/><path class="symbol-line" d="M50.88 29.28L96 48"/><text class="polarity" x="0" y="-3.5999999999999996">M</text><text class="component-value" x="0" y="20.4">3~</text></g>
      <text class="component-value" x="2328" y="396.2">Motor 3~</text><text class="component-ref" x="2328" y="379.2">M1</text>
    </g><g class="component review-engine_reviewed" data-ref="PE1" data-symbol-id="SYM-0011" data-review-status="engine_reviewed">
      <g transform="translate(2640 216) rotate(0) scale(1 1)"><path class="symbol-line" d="M0 -48L0 -16.799999999999997"/><path class="symbol-line" d="M-30 -16.799999999999997L30 -16.799999999999997"/><path class="symbol-line" d="M-19.68 -16.799999999999997L0 2.4000000000000004"/><path class="symbol-line" d="M19.68 -16.799999999999997L0 2.4000000000000004"/><path class="symbol-line" d="M-11.52 -16.799999999999997L0 -5.28"/><path class="symbol-line" d="M11.52 -16.799999999999997L0 -5.28"/></g>
      <text class="component-value" x="2640" y="300.2">PE</text><text class="component-ref" x="2640" y="283.2">PE1</text>
    </g></g>
      <line class="title-rule" x1="8" y1="912" x2="3136" y2="912"/>
      <g class="title-block">
        <rect class="symbol-line" x="2662" y="920" width="470" height="64"/>
        <line class="title-rule" x1="2991" y1="920" x2="2991" y2="984"/>
        <line class="title-rule" x1="2991" y1="952" x2="3132" y2="952"/>
        <text class="title-main" x="2674" y="946">PLC, seguridad y variador para motor t…</text>
        <text class="title-small" x="2674" y="968">ELECTROIA-PRO-AUTO-001</text>
        <text class="title-small" x="3001" y="940">REV. A</text>
        <text class="title-small" x="3001" y="972">HOJA 1 / 1</text>
      </g>
      <text class="title-small" x="24" y="946">ElectroIA Diagram Engine 1.15.0-alpha.1</text>
      <text class="title-small" x="24" y="964">multi_line_diagram · IEC_EXPERIMENTAL</text>
      <text class="document-note" x="24" y="982">EJEMPLO FUNCIONAL: LOS BORNES FÍSICOS DEPENDEN DEL MODELO EXACTO</text>
    </svg>
