<svg xmlns="http://www.w3.org/2000/svg" width="840" height="210" viewBox="0 0 840 210"><style>.s{stroke:#172033;stroke-width:3;fill:none;stroke-linecap:round;stroke-linejoin:round} .f{fill:#172033} .t{font:700 14px Arial,sans-serif;fill:#172033;text-anchor:middle} .sm{font:12px Arial,sans-serif;fill:#475569;text-anchor:middle} .a{stroke:#0f766e;stroke-width:2.5;fill:none;stroke-linecap:round;stroke-linejoin:round}</style><g transform="translate(10,55) scale(0.75)"><line class="s" x1="20" y1="60" x2="65" y2="60"/><rect class="s" x="65" y="45" width="90" height="30"/><line class="s" x1="75" y1="60" x2="145" y2="60"/><line class="s" x1="155" y1="60" x2="200" y2="60"/></g><text x="120" y="175" class="t">Fusible</text><g transform="translate(210,55) scale(0.75)"><line class="s" x1="20" y1="60" x2="65" y2="60"/><rect class="s" x="65" y="45" width="90" height="30"/><line class="s" x1="155" y1="60" x2="200" y2="60"/><line class="a" x1="75" y1="85" x2="150" y2="30"/><text class="sm" x="170" y="35">V</text></g><text x="320" y="175" class="t">MOV</text><g transform="translate(410,55) scale(0.75)"><line class="s" x1="20" y1="60" x2="65" y2="60"/><rect class="s" x="65" y="45" width="90" height="30"/><line class="s" x1="155" y1="60" x2="200" y2="60"/><line class="a" x1="75" y1="85" x2="150" y2="30"/><text class="sm" x="170" y="35">−T</text></g><text x="520" y="175" class="t">NTC</text><g transform="translate(610,55) scale(0.75)"><line class="s" x1="20" y1="40" x2="65" y2="40"/><path class="s" d="M65 40 q12 -22 24 0 q12 -22 24 0 q12 -22 24 0"/><line class="s" x1="137" y1="40" x2="200" y2="40"/><line class="s" x1="20" y1="80" x2="65" y2="80"/><path class="s" d="M65 80 q12 22 24 0 q12 22 24 0 q12 22 24 0"/><line class="s" x1="137" y1="80" x2="200" y2="80"/><line class="a" x1="75" y1="55" x2="135" y2="55"/><line class="a" x1="75" y1="65" x2="135" y2="65"/></g><text x="720" y="175" class="t">Choque</text><line class="a" x1="195" y1="115" x2="245" y2="115"/><path class="a" d="M 237.2 119.5 L 245 115 L 237.2 110.5"/><line class="a" x1="395" y1="115" x2="445" y2="115"/><path class="a" d="M 437.2 119.5 L 445 115 L 437.2 110.5"/><line class="a" x1="595" y1="115" x2="645" y2="115"/><path class="a" d="M 637.2 119.5 L 645 115 L 637.2 110.5"/></svg>