<svg xmlns="http://www.w3.org/2000/svg" width="840" height="210" viewBox="0 0 840 210"><style>.s{stroke:#172033;stroke-width:3;fill:none;stroke-linecap:round;stroke-linejoin:round} .f{fill:#172033} .t{font:700 14px Arial,sans-serif;fill:#172033;text-anchor:middle} .sm{font:12px Arial,sans-serif;fill:#475569;text-anchor:middle} .a{stroke:#0f766e;stroke-width:2.5;fill:none;stroke-linecap:round;stroke-linejoin:round}</style><g transform="translate(10,55) scale(0.75)"><polygon class="s" points="110,18 175,60 110,102 45,60"/><text class="t" x="110" y="65">BR</text><text class="sm" x="45" y="35">~</text><text class="sm" x="175" y="35">~</text><text class="sm" x="110" y="15">+</text><text class="sm" x="110" y="118">−</text></g><text x="120" y="175" class="t">Rectificador</text><g transform="translate(210,55) scale(0.75)"><line class="s" x1="20" y1="53.333333333333336" x2="55" y2="53.333333333333336"/><line class="s" x1="20" y1="66.66666666666667" x2="55" y2="66.66666666666667"/><line class="s" x1="165" y1="60.0" x2="200" y2="60.0"/><rect class="s" x="55" y="25" width="110" height="70" rx="5"/><text class="t" style="font-size:15px" x="110" y="58">Control</text><text class="sm" style="font-size:11px" x="110" y="78">flyback ctrl</text></g><text x="320" y="175" class="t">Control</text><g transform="translate(410,55) scale(0.75)"><line class="s" x1="20" y1="30" x2="70" y2="30"/><line class="s" x1="20" y1="84" x2="70" y2="84"/><path class="s" d="M 70 30 a12 9 0 0 0 0 18"/><path class="s" d="M 70 48 a12 9 0 0 0 0 18"/><path class="s" d="M 70 66 a12 9 0 0 0 0 18"/><line class="a" x1="102" y1="25" x2="102" y2="95"/><line class="a" x1="112" y1="25" x2="112" y2="95"/><path class="s" d="M 150 30 a12 9 0 0 1 0 18"/><path class="s" d="M 150 48 a12 9 0 0 1 0 18"/><path class="s" d="M 150 66 a12 9 0 0 1 0 18"/><line class="s" x1="150" y1="30" x2="200" y2="30"/><line class="s" x1="150" y1="84" x2="200" y2="84"/></g><text x="520" y="175" class="t">Trafo</text><g transform="translate(610,55) scale(0.75)"><line class="s" x1="20" y1="60" x2="75" y2="60"/><path class="s" d="M75 30 L130 60 L75 90 Z"/><line class="s" x1="135" y1="30" x2="135" y2="90"/><line class="s" x1="135" y1="60" x2="200" y2="60"/><path class="a" d="M125 30 h18 v12 M125 90 h18 v-12"/></g><text x="720" y="175" class="t">Secundario</text><line class="a" x1="195" y1="115" x2="245" y2="115"/><path class="a" d="M 237.2 119.5 L 245 115 L 237.2 110.5"/><line class="a" x1="395" y1="115" x2="445" y2="115"/><path class="a" d="M 437.2 119.5 L 445 115 L 437.2 110.5"/><line class="a" x1="595" y1="115" x2="645" y2="115"/><path class="a" d="M 637.2 119.5 L 645 115 L 637.2 110.5"/></svg>